<svg width="64" height="64" viewBox="0 0 64 64" fill="none" xmlns="http://www.w3.org/2000/svg">
  <defs>
    <linearGradient id="callora-gradient" x1="10" y1="8" x2="54" y2="56" gradientUnits="userSpaceOnUse">
      <stop offset="0" stop-color="#4FC3F7"/>
      <stop offset="1" stop-color="#0EA5E9"/>
    </linearGradient>
  </defs>
  <rect x="4" y="4" width="56" height="56" rx="16" fill="#0F172A"/>
  <rect x="8" y="8" width="48" height="48" rx="12" fill="url(#callora-gradient)"/>
  <path d="M18 26.5C18 24.567 19.567 23 21.5 23H34.5C36.433 23 38 24.567 38 26.5V37.5C38 39.433 36.433 41 34.5 41H21.5C19.567 41 18 39.433 18 37.5V26.5Z" fill="white"/>
  <path d="M41 30.6L47.2 26.8C48.2 26.2 49.5 26.92 49.5 28.1V35.9C49.5 37.08 48.2 37.8 47.2 37.2L41 33.4V30.6Z" fill="white"/>
  <circle cx="25" cy="28.5" r="2" fill="#0EA5E9"/>
</svg>
